<svg width="147" height="148" viewBox="0 0 147 148" fill="none" xmlns="http://www.w3.org/2000/svg">
<path d="M30.1858 44.2794C30.1858 40.6742 31.618 37.2166 34.1673 34.6673C36.7166 32.118 40.1741 30.6858 43.7794 30.6858H49.9583C53.5476 30.6838 56.9905 29.2622 59.5356 26.7313L63.8609 22.4061C65.1241 21.1357 66.6261 20.1275 68.2803 19.4396C69.9345 18.7517 71.7084 18.3975 73.5 18.3975C75.2915 18.3975 77.0654 18.7517 78.7197 19.4396C80.3739 20.1275 81.8758 21.1357 83.1391 22.4061L87.4643 26.7313C90.01 29.2647 93.4579 30.6858 97.0416 30.6858H103.221C106.826 30.6858 110.283 32.118 112.833 34.6673C115.382 37.2166 116.814 40.6742 116.814 44.2794V50.4583C116.814 54.0421 118.235 57.4899 120.769 60.0357L125.094 64.3609C126.364 65.6242 127.372 67.1261 128.06 68.7803C128.748 70.4345 129.102 72.2084 129.102 74C129.102 75.7916 128.748 77.5655 128.06 79.2197C127.372 80.8739 126.364 82.3758 125.094 83.6391L120.769 87.9643C118.238 90.5095 116.816 93.9523 116.814 97.5417V103.721C116.814 107.326 115.382 110.783 112.833 113.333C110.283 115.882 106.826 117.314 103.221 117.314H97.0416C93.4523 117.316 90.0095 118.738 87.4643 121.269L83.1391 125.594C81.8758 126.864 80.3739 127.872 78.7197 128.56C77.0654 129.248 75.2915 129.602 73.5 129.602C71.7084 129.602 69.9345 129.248 68.2803 128.56C66.6261 127.872 65.1241 126.864 63.8609 125.594L59.5356 121.269C56.9905 118.738 53.5476 117.316 49.9583 117.314H43.7794C40.1741 117.314 36.7166 115.882 34.1673 113.333C31.618 110.783 30.1858 107.326 30.1858 103.721V97.5417C30.1837 93.9523 28.7622 90.5095 26.2313 87.9643L21.906 83.6391C20.6357 82.3758 19.6275 80.8739 18.9396 79.2197C18.2517 77.5655 17.8975 75.7916 17.8975 74C17.8975 72.2084 18.2517 70.4345 18.9396 68.7803C19.6275 67.1261 20.6357 65.6242 21.906 64.3609L26.2313 60.0357C28.7622 57.4905 30.1837 54.0477 30.1858 50.4583V44.2794Z" stroke="#2E2E2E" stroke-width="8.3" stroke-linecap="round" stroke-linejoin="round"/>
<path d="M46.0614 55.4601C46.0614 53.1 46.9989 50.8366 48.6678 49.1678C50.3366 47.4989 52.6 46.5614 54.9601 46.5614H59.005C61.3546 46.5601 63.6084 45.6295 65.2745 43.9727L68.1059 41.1413C68.9329 40.3097 69.9161 39.6497 70.999 39.1994C72.0819 38.749 73.2431 38.5172 74.4159 38.5172C75.5887 38.5172 76.7499 38.749 77.8328 39.1994C78.9157 39.6497 79.8989 40.3097 80.7259 41.1413L83.5573 43.9727C85.2238 45.6311 87.4808 46.5614 89.8268 46.5614H93.8717C96.2318 46.5614 98.4952 47.4989 100.164 49.1678C101.833 50.8366 102.77 53.1 102.77 55.4601V59.505C102.77 61.851 103.701 64.108 105.359 65.7745L108.191 68.6059C109.022 69.4329 109.682 70.4161 110.132 71.499C110.583 72.5819 110.815 73.7431 110.815 74.9159C110.815 76.0887 110.583 77.2499 110.132 78.3328C109.682 79.4157 109.022 80.3989 108.191 81.2259L105.359 84.0573C103.702 85.7234 102.772 87.9772 102.77 90.3268V94.3717C102.77 96.7318 101.833 98.9952 100.164 100.664C98.4952 102.333 96.2318 103.27 93.8717 103.27H89.8268C87.4772 103.272 85.2234 104.202 83.5573 105.859L80.7259 108.691C79.8989 109.522 78.9157 110.182 77.8328 110.632C76.7499 111.083 75.5887 111.315 74.4159 111.315C73.2431 111.315 72.0819 111.083 70.999 110.632C69.9161 110.182 68.9329 109.522 68.1059 108.691L65.2745 105.859C63.6084 104.202 61.3546 103.272 59.005 103.27H54.9601C52.6 103.27 50.3366 102.333 48.6678 100.664C46.9989 98.9952 46.0614 96.7318 46.0614 94.3717V90.3268C46.0601 87.9772 45.1295 85.7234 43.4727 84.0573L40.6413 81.2259C39.8097 80.3989 39.1497 79.4157 38.6994 78.3328C38.249 77.2499 38.0172 76.0887 38.0172 74.9159C38.0172 73.7431 38.249 72.5819 38.6994 71.499C39.1497 70.4161 39.8097 69.4329 40.6413 68.6059L43.4727 65.7745C45.1295 64.1084 46.0601 61.8546 46.0614 59.505V55.4601Z" stroke="#2E2E2E" stroke-width="6.39198" stroke-linecap="round" stroke-linejoin="round"/>
</svg>
